# Blender v2.79 (sub 0) OBJ File: 'body.blend'
# www.blender.org
mtllib body.mtl
o Cube
v 1.000000 -0.630000 -1.874600
v 1.000000 -0.630000 1.874600
v -1.000000 -0.630000 1.874599
v -1.000000 -0.630000 -1.874601
v 1.000000 0.630000 -1.874599
v 0.999999 0.630000 1.874601
v -1.000000 0.630000 1.874599
v -1.000000 0.630000 -1.874600
vt 0.223178 0.616751
vt 0.293667 0.869596
vt 0.223178 0.869596
vt 0.178769 0.869596
vt 0.108280 0.616751
vt 0.178769 0.616751
vt 0.108280 0.539424
vt 0.178769 0.539424
vt 0.063872 0.869596
vt 0.063871 0.616751
vt 0.178769 0.946923
vt 0.108280 0.869596
vt 0.293667 0.616751
vt 0.108280 0.946923
vn 0.0000 -1.0000 0.0000
vn 0.0000 1.0000 0.0000
vn 1.0000 -0.0000 0.0000
vn -0.0000 -0.0000 1.0000
vn -1.0000 -0.0000 -0.0000
vn 0.0000 0.0000 -1.0000
usemtl cube_material
s off
f 2/1/1 4/2/1 1/3/1
f 5/4/2 7/5/2 6/6/2
f 5/4/3 2/1/3 1/3/3
f 6/6/4 3/7/4 2/8/4
f 7/5/5 4/9/5 3/10/5
f 1/11/6 8/12/6 5/4/6
f 2/1/1 3/13/1 4/2/1
f 5/4/2 8/12/2 7/5/2
f 5/4/3 6/6/3 2/1/3
f 6/6/4 7/5/4 3/7/4
f 7/5/5 8/12/5 4/9/5
f 1/11/6 4/14/6 8/12/6
