# Blender v2.79 (sub 0) OBJ File: 'test_cube.blend'
# www.blender.org
mtllib test_cube.mtl
o Cube
v -1.000000 1.000000 -1.000000
v 1.000000 1.000000 -1.000000
v 1.000000 -1.000000 -1.000000
v -1.000000 -1.000000 -1.000000
v -1.000000 1.000000 1.000000
v 1.000001 0.999999 1.000000
v 1.000000 -1.000000 1.000000
v -1.000000 -1.000000 1.000000
vt 0.574284 0.333362
vt 0.765683 0.666637
vt 0.574284 0.666637
vt 0.191486 0.666638
vt 0.382885 0.333362
vt 0.382885 0.666637
vt 0.191486 0.000088
vt 0.382885 0.000087
vt 0.191486 0.333363
vt 0.000088 0.666638
vt 0.000087 0.333363
vt 0.382885 0.999913
vt 0.765683 0.333362
vt 0.191486 0.999913
vn -0.0000 0.0000 -1.0000
vn 0.0000 0.0000 1.0000
vn -0.0000 1.0000 -0.0000
vn 1.0000 0.0000 -0.0000
vn -0.0000 -1.0000 -0.0000
vn -1.0000 0.0000 0.0000
usemtl cube_material
s off
f 2/1/1 4/2/1 1/3/1
f 8/4/2 6/5/2 5/6/2
f 5/6/3 2/1/3 1/3/3
f 6/5/4 3/7/4 2/8/4
f 7/9/5 4/10/5 3/11/5
f 1/12/6 8/4/6 5/6/6
f 2/1/1 3/13/1 4/2/1
f 8/4/2 7/9/2 6/5/2
f 5/6/3 6/5/3 2/1/3
f 6/5/4 7/9/4 3/7/4
f 7/9/5 8/4/5 4/10/5
f 1/12/6 4/14/6 8/4/6
